<svg xmlns="http://www.w3.org/2000/svg" width="900" height="600" viewBox="0 0 900 600">
  <rect width="900" height="600" fill="#fff8e8"/>
  <g fill="none" stroke="#1b1b1b" stroke-width="3" stroke-linecap="round" stroke-linejoin="round">
    <path d="M430 100c20-30 70-35 95-5 30 35 15 80-25 90-40 10-75-20-70-60"/>
    <path d="M460 190c-10 70-45 120-85 160"/>
    <path d="M460 210c35 35 70 80 95 130"/>
    <path d="M375 350c-25 35-40 80-45 130"/>
    <path d="M555 340c35 45 55 85 70 140"/>
    <path d="M350 470c-10 35-25 65-45 95"/>
    <path d="M585 470c15 40 30 70 55 95"/>
  </g>
</svg>
