<svg xmlns="http://www.w3.org/2000/svg" width="900" height="600" viewBox="0 0 900 600">
  <rect width="900" height="600" fill="#fff8e8"/>
  <g fill="none" stroke="#1b1b1b" stroke-width="3" stroke-linecap="round" stroke-linejoin="round">
    <path d="M450 90c-30 20-40 55-25 85 20 40 70 45 95 10 20-30 10-70-30-95"/>
    <path d="M475 175c5 60-20 100-55 140-25 30-40 70-30 120"/>
    <path d="M470 210c40 20 70 55 90 100"/>
    <path d="M415 330c-35 40-60 90-70 150"/>
    <path d="M520 320c35 45 55 95 70 160"/>
    <path d="M420 470c-5 35-15 55-35 90"/>
    <path d="M545 470c10 40 20 70 40 95"/>
  </g>
</svg>
