<svg xmlns="http://www.w3.org/2000/svg" width="900" height="600" viewBox="0 0 900 600">
  <rect width="900" height="600" fill="#fff8e8"/>
  <g fill="none" stroke="#1b1b1b" stroke-width="3" stroke-linecap="round" stroke-linejoin="round">
    <path d="M60 430c120-90 210-140 310-120 110 20 170 80 260 90 90 10 180-40 250-110"/>
    <path d="M120 490c150-30 250-10 330 20 120 45 240 30 320-10"/>
    <path d="M180 350l90-100 120 140 90-90 130 150"/>
    <path d="M560 250l70-80 90 110 90-120"/>
    <path d="M90 520c200 25 450 20 720-10"/>
  </g>
</svg>
